<mxfile host="app.diagrams.net" modified="2024-06-28T08:06:16.211Z" agent="Mozilla/5.0 (Windows NT 10.0; Win64; x64) AppleWebKit/537.36 (KHTML, like Gecko) Chrome/126.0.0.0 Safari/537.36" etag="PlzJKE-J2OgudlS0EKcu" version="24.6.3" type="device">
  <diagram name="Page-1" id="5mhqRI8VTIk9d_TGpRCZ">
    <mxGraphModel dx="2863" dy="747" grid="1" gridSize="10" guides="1" tooltips="1" connect="1" arrows="1" fold="1" page="1" pageScale="1" pageWidth="827" pageHeight="1169" math="0" shadow="0">
      <root>
        <mxCell id="0" />
        <mxCell id="1" parent="0" />
        <mxCell id="SP1HNl9ouSVhXSK7FoCI-24" value="Server.exe" style="rounded=0;whiteSpace=wrap;html=1;verticalAlign=bottom;align=left;" parent="1" vertex="1">
          <mxGeometry x="350" y="320" width="180" height="300" as="geometry" />
        </mxCell>
        <mxCell id="SP1HNl9ouSVhXSK7FoCI-1" value="Client.exe" style="rounded=0;whiteSpace=wrap;html=1;" parent="1" vertex="1">
          <mxGeometry x="160" y="120" width="80" height="40" as="geometry" />
        </mxCell>
        <mxCell id="SP1HNl9ouSVhXSK7FoCI-3" value="Client.exe" style="rounded=0;whiteSpace=wrap;html=1;" parent="1" vertex="1">
          <mxGeometry x="640" y="120" width="80" height="40" as="geometry" />
        </mxCell>
        <mxCell id="SP1HNl9ouSVhXSK7FoCI-4" value="Client.exe" style="rounded=0;whiteSpace=wrap;html=1;" parent="1" vertex="1">
          <mxGeometry x="400" y="120" width="80" height="40" as="geometry" />
        </mxCell>
        <mxCell id="SP1HNl9ouSVhXSK7FoCI-10" value="MySQL" style="shape=cylinder3;whiteSpace=wrap;html=1;boundedLbl=1;backgroundOutline=1;size=15;" parent="1" vertex="1">
          <mxGeometry x="410" y="720" width="60" height="80" as="geometry" />
        </mxCell>
        <mxCell id="SP1HNl9ouSVhXSK7FoCI-11" value="" style="endArrow=classic;html=1;rounded=0;entryX=0.5;entryY=0;entryDx=0;entryDy=0;entryPerimeter=0;exitX=0.5;exitY=1;exitDx=0;exitDy=0;" parent="1" source="SP1HNl9ouSVhXSK7FoCI-20" target="SP1HNl9ouSVhXSK7FoCI-10" edge="1">
          <mxGeometry width="50" height="50" relative="1" as="geometry">
            <mxPoint x="540" y="520" as="sourcePoint" />
            <mxPoint x="480" y="450" as="targetPoint" />
          </mxGeometry>
        </mxCell>
        <mxCell id="SP1HNl9ouSVhXSK7FoCI-12" value="" style="endArrow=classic;startArrow=classic;html=1;rounded=0;entryX=0;entryY=1;entryDx=0;entryDy=0;exitX=0.721;exitY=0.002;exitDx=0;exitDy=0;exitPerimeter=0;" parent="1" source="SP1HNl9ouSVhXSK7FoCI-24" target="SP1HNl9ouSVhXSK7FoCI-3" edge="1">
          <mxGeometry width="50" height="50" relative="1" as="geometry">
            <mxPoint x="485" y="320" as="sourcePoint" />
            <mxPoint x="600" y="310" as="targetPoint" />
          </mxGeometry>
        </mxCell>
        <mxCell id="SP1HNl9ouSVhXSK7FoCI-13" value="" style="endArrow=classic;startArrow=classic;html=1;rounded=0;entryX=0.276;entryY=0;entryDx=0;entryDy=0;exitX=1;exitY=1;exitDx=0;exitDy=0;entryPerimeter=0;" parent="1" source="SP1HNl9ouSVhXSK7FoCI-1" target="SP1HNl9ouSVhXSK7FoCI-24" edge="1">
          <mxGeometry width="50" height="50" relative="1" as="geometry">
            <mxPoint x="390" y="430" as="sourcePoint" />
            <mxPoint x="350" y="320" as="targetPoint" />
          </mxGeometry>
        </mxCell>
        <mxCell id="SP1HNl9ouSVhXSK7FoCI-19" style="edgeStyle=orthogonalEdgeStyle;rounded=0;orthogonalLoop=1;jettySize=auto;html=1;exitX=0.5;exitY=1;exitDx=0;exitDy=0;" parent="1" edge="1">
          <mxGeometry relative="1" as="geometry">
            <mxPoint x="440" y="520" as="sourcePoint" />
            <mxPoint x="440" y="520" as="targetPoint" />
          </mxGeometry>
        </mxCell>
        <mxCell id="SP1HNl9ouSVhXSK7FoCI-20" value="Consumer thread" style="rounded=0;whiteSpace=wrap;html=1;dashed=1;" parent="1" vertex="1">
          <mxGeometry x="400" y="550" width="80" height="40" as="geometry" />
        </mxCell>
        <mxCell id="SP1HNl9ouSVhXSK7FoCI-28" value="Producer" style="rounded=0;whiteSpace=wrap;html=1;dashed=1;" parent="1" vertex="1">
          <mxGeometry x="400" y="410" width="80" height="40" as="geometry" />
        </mxCell>
        <mxCell id="SP1HNl9ouSVhXSK7FoCI-41" value="" style="endArrow=classic;html=1;rounded=0;entryX=0;entryY=0;entryDx=0;entryDy=0;" parent="1" target="SP1HNl9ouSVhXSK7FoCI-28" edge="1">
          <mxGeometry width="50" height="50" relative="1" as="geometry">
            <mxPoint x="400" y="330" as="sourcePoint" />
            <mxPoint x="350" y="390" as="targetPoint" />
          </mxGeometry>
        </mxCell>
        <mxCell id="SP1HNl9ouSVhXSK7FoCI-42" value="Boost ASIO" style="endArrow=classic;html=1;rounded=0;entryX=0.5;entryY=0;entryDx=0;entryDy=0;" parent="1" target="SP1HNl9ouSVhXSK7FoCI-28" edge="1">
          <mxGeometry width="50" height="50" relative="1" as="geometry">
            <mxPoint x="440" y="330" as="sourcePoint" />
            <mxPoint x="290" y="640" as="targetPoint" />
          </mxGeometry>
        </mxCell>
        <mxCell id="SP1HNl9ouSVhXSK7FoCI-44" value="" style="endArrow=classic;html=1;rounded=0;entryX=1;entryY=0;entryDx=0;entryDy=0;" parent="1" target="SP1HNl9ouSVhXSK7FoCI-28" edge="1">
          <mxGeometry width="50" height="50" relative="1" as="geometry">
            <mxPoint x="480" y="330" as="sourcePoint" />
            <mxPoint x="560" y="350" as="targetPoint" />
          </mxGeometry>
        </mxCell>
        <mxCell id="SP1HNl9ouSVhXSK7FoCI-46" value="" style="endArrow=classic;html=1;rounded=0;exitX=0.5;exitY=1;exitDx=0;exitDy=0;entryX=0.5;entryY=0;entryDx=0;entryDy=0;" parent="1" source="SP1HNl9ouSVhXSK7FoCI-28" edge="1">
          <mxGeometry width="50" height="50" relative="1" as="geometry">
            <mxPoint x="350" y="500" as="sourcePoint" />
            <mxPoint x="440" y="480" as="targetPoint" />
          </mxGeometry>
        </mxCell>
        <mxCell id="SP1HNl9ouSVhXSK7FoCI-47" value="" style="endArrow=classic;html=1;rounded=0;entryX=0.5;entryY=0;entryDx=0;entryDy=0;exitX=0.5;exitY=1;exitDx=0;exitDy=0;" parent="1" target="SP1HNl9ouSVhXSK7FoCI-20" edge="1">
          <mxGeometry width="50" height="50" relative="1" as="geometry">
            <mxPoint x="440" y="520" as="sourcePoint" />
            <mxPoint x="400" y="450" as="targetPoint" />
          </mxGeometry>
        </mxCell>
        <mxCell id="SP1HNl9ouSVhXSK7FoCI-49" value="Query.exe" style="rounded=0;whiteSpace=wrap;html=1;" parent="1" vertex="1">
          <mxGeometry x="400" y="920" width="80" height="40" as="geometry" />
        </mxCell>
        <mxCell id="SP1HNl9ouSVhXSK7FoCI-51" value="Report" style="shape=document;whiteSpace=wrap;html=1;boundedLbl=1;" parent="1" vertex="1">
          <mxGeometry x="600" y="920" width="120" height="80" as="geometry" />
        </mxCell>
        <mxCell id="SP1HNl9ouSVhXSK7FoCI-52" value="" style="endArrow=classic;html=1;rounded=0;entryX=0;entryY=0.25;entryDx=0;entryDy=0;exitX=1;exitY=0.5;exitDx=0;exitDy=0;" parent="1" source="SP1HNl9ouSVhXSK7FoCI-49" target="SP1HNl9ouSVhXSK7FoCI-51" edge="1">
          <mxGeometry width="50" height="50" relative="1" as="geometry">
            <mxPoint x="450" y="1050" as="sourcePoint" />
            <mxPoint x="500" y="1000" as="targetPoint" />
          </mxGeometry>
        </mxCell>
        <mxCell id="SP1HNl9ouSVhXSK7FoCI-54" value="Tx:Json" style="endArrow=classic;html=1;rounded=0;exitX=0.25;exitY=1;exitDx=0;exitDy=0;entryX=0.5;entryY=0;entryDx=0;entryDy=0;align=right;" parent="1" source="SP1HNl9ouSVhXSK7FoCI-4" target="SP1HNl9ouSVhXSK7FoCI-24" edge="1">
          <mxGeometry width="50" height="50" relative="1" as="geometry">
            <mxPoint x="440" y="240" as="sourcePoint" />
            <mxPoint x="490" y="190" as="targetPoint" />
          </mxGeometry>
        </mxCell>
        <mxCell id="SP1HNl9ouSVhXSK7FoCI-55" value="Rx: Ack" style="endArrow=classic;html=1;rounded=0;exitX=0.5;exitY=0;exitDx=0;exitDy=0;entryX=0.75;entryY=1;entryDx=0;entryDy=0;align=left;" parent="1" source="SP1HNl9ouSVhXSK7FoCI-24" target="SP1HNl9ouSVhXSK7FoCI-4" edge="1">
          <mxGeometry width="50" height="50" relative="1" as="geometry">
            <mxPoint x="480" y="260" as="sourcePoint" />
            <mxPoint x="530" y="210" as="targetPoint" />
          </mxGeometry>
        </mxCell>
        <mxCell id="SP1HNl9ouSVhXSK7FoCI-56" value="Queue" style="shape=dataStorage;whiteSpace=wrap;html=1;fixedSize=1;dashed=1;size=10;" parent="1" vertex="1">
          <mxGeometry x="390" y="480" width="90" height="40" as="geometry" />
        </mxCell>
        <mxCell id="SP1HNl9ouSVhXSK7FoCI-59" value="" style="endArrow=classic;html=1;rounded=0;exitX=0.5;exitY=0;exitDx=0;exitDy=0;entryX=0.5;entryY=1;entryDx=0;entryDy=0;entryPerimeter=0;" parent="1" source="SP1HNl9ouSVhXSK7FoCI-49" target="SP1HNl9ouSVhXSK7FoCI-10" edge="1">
          <mxGeometry width="50" height="50" relative="1" as="geometry">
            <mxPoint x="550" y="810" as="sourcePoint" />
            <mxPoint x="600" y="760" as="targetPoint" />
          </mxGeometry>
        </mxCell>
        <mxCell id="guBZJoar0qK_OAKQDBWx-3" value="Client.exe" style="rounded=0;whiteSpace=wrap;html=1;" parent="1" vertex="1">
          <mxGeometry x="-670" y="120" width="80" height="40" as="geometry" />
        </mxCell>
        <mxCell id="guBZJoar0qK_OAKQDBWx-4" value="Client.exe" style="rounded=0;whiteSpace=wrap;html=1;" parent="1" vertex="1">
          <mxGeometry x="-190" y="120" width="80" height="40" as="geometry" />
        </mxCell>
        <mxCell id="guBZJoar0qK_OAKQDBWx-5" value="Client.exe" style="rounded=0;whiteSpace=wrap;html=1;" parent="1" vertex="1">
          <mxGeometry x="-430" y="120" width="80" height="40" as="geometry" />
        </mxCell>
        <mxCell id="guBZJoar0qK_OAKQDBWx-11" value="Microsoft Azure" style="ellipse;shape=cloud;whiteSpace=wrap;html=1;align=left;verticalAlign=bottom;fontSize=13;" parent="1" vertex="1">
          <mxGeometry x="-560" y="720" width="330" height="210" as="geometry" />
        </mxCell>
        <mxCell id="guBZJoar0qK_OAKQDBWx-6" value="MySQL server" style="shape=cylinder3;whiteSpace=wrap;html=1;boundedLbl=1;backgroundOutline=1;size=15;" parent="1" vertex="1">
          <mxGeometry x="-425" y="790" width="60" height="80" as="geometry" />
        </mxCell>
        <mxCell id="guBZJoar0qK_OAKQDBWx-13" value="Windows/Linux server" style="ellipse;shape=cloud;whiteSpace=wrap;html=1;align=left;verticalAlign=bottom;fontSize=13;" parent="1" vertex="1">
          <mxGeometry x="-560" y="380" width="330" height="210" as="geometry" />
        </mxCell>
        <mxCell id="guBZJoar0qK_OAKQDBWx-2" value="Server.exe" style="rounded=0;whiteSpace=wrap;html=1;verticalAlign=middle;align=center;" parent="1" vertex="1">
          <mxGeometry x="-435" y="470" width="80" height="40" as="geometry" />
        </mxCell>
        <mxCell id="guBZJoar0qK_OAKQDBWx-8" value="" style="endArrow=classic;startArrow=classic;html=1;rounded=0;entryX=0;entryY=1;entryDx=0;entryDy=0;exitX=0.721;exitY=0.002;exitDx=0;exitDy=0;exitPerimeter=0;" parent="1" source="guBZJoar0qK_OAKQDBWx-2" target="guBZJoar0qK_OAKQDBWx-4" edge="1">
          <mxGeometry width="50" height="50" relative="1" as="geometry">
            <mxPoint x="-345" y="320" as="sourcePoint" />
            <mxPoint x="-230" y="310" as="targetPoint" />
          </mxGeometry>
        </mxCell>
        <mxCell id="guBZJoar0qK_OAKQDBWx-9" value="" style="endArrow=classic;startArrow=classic;html=1;rounded=0;entryX=0.276;entryY=0;entryDx=0;entryDy=0;exitX=1;exitY=1;exitDx=0;exitDy=0;entryPerimeter=0;" parent="1" source="guBZJoar0qK_OAKQDBWx-3" target="guBZJoar0qK_OAKQDBWx-2" edge="1">
          <mxGeometry width="50" height="50" relative="1" as="geometry">
            <mxPoint x="-440" y="430" as="sourcePoint" />
            <mxPoint x="-480" y="320" as="targetPoint" />
          </mxGeometry>
        </mxCell>
        <mxCell id="guBZJoar0qK_OAKQDBWx-10" value="TCP/IP (not HTTP)" style="endArrow=classic;startArrow=classic;html=1;rounded=0;entryX=0.5;entryY=1;entryDx=0;entryDy=0;exitX=0.5;exitY=0;exitDx=0;exitDy=0;" parent="1" source="guBZJoar0qK_OAKQDBWx-2" target="guBZJoar0qK_OAKQDBWx-5" edge="1">
          <mxGeometry width="50" height="50" relative="1" as="geometry">
            <mxPoint x="-260" y="570" as="sourcePoint" />
            <mxPoint x="-210" y="520" as="targetPoint" />
          </mxGeometry>
        </mxCell>
        <mxCell id="guBZJoar0qK_OAKQDBWx-7" value="TCP/IP" style="endArrow=classic;html=1;rounded=0;entryX=0.5;entryY=0;entryDx=0;entryDy=0;entryPerimeter=0;exitX=0.5;exitY=1;exitDx=0;exitDy=0;" parent="1" source="guBZJoar0qK_OAKQDBWx-2" target="guBZJoar0qK_OAKQDBWx-6" edge="1">
          <mxGeometry width="50" height="50" relative="1" as="geometry">
            <mxPoint x="-390" y="360" as="sourcePoint" />
            <mxPoint x="-350" y="450" as="targetPoint" />
          </mxGeometry>
        </mxCell>
        <mxCell id="5A5ht_u0BlR7RnOHPe7w-1" value="&lt;p style=&quot;margin:0px;margin-top:6px;text-align:center;&quot;&gt;&lt;b&gt;Utilities&lt;/b&gt;&lt;/p&gt;&lt;hr size=&quot;1&quot; style=&quot;border-style:solid;&quot;&gt;&lt;p style=&quot;margin:0px;margin-left:8px;&quot;&gt;+ Lib dependency: libmysqlcppconn&lt;br&gt;+ Lib dependency: json11&lt;/p&gt;&lt;p style=&quot;margin:0px;margin-left:8px;&quot;&gt;+ Lib dependency: sqlite3&lt;/p&gt;&lt;p style=&quot;margin:0px;margin-left:8px;&quot;&gt;+ Header dependency: date&lt;/p&gt;&lt;p style=&quot;margin:0px;margin-left:8px;&quot;&gt;+ Header dependency: &amp;lt;format&amp;gt; (c++20)&lt;/p&gt;&lt;p style=&quot;margin:0px;margin-left:8px;&quot;&gt;&lt;br&gt;&lt;/p&gt;" style="align=left;overflow=fill;html=1;dropTarget=0;whiteSpace=wrap;" parent="1" vertex="1">
          <mxGeometry x="980" y="160" width="250" height="130" as="geometry" />
        </mxCell>
        <mxCell id="5A5ht_u0BlR7RnOHPe7w-2" value="" style="shape=component;jettyWidth=8;jettyHeight=4;" parent="5A5ht_u0BlR7RnOHPe7w-1" vertex="1">
          <mxGeometry x="1" width="20" height="20" relative="1" as="geometry">
            <mxPoint x="-24" y="4" as="offset" />
          </mxGeometry>
        </mxCell>
        <mxCell id="5A5ht_u0BlR7RnOHPe7w-5" style="edgeStyle=orthogonalEdgeStyle;rounded=0;orthogonalLoop=1;jettySize=auto;html=1;entryX=0.349;entryY=1.007;entryDx=0;entryDy=0;entryPerimeter=0;" parent="1" source="5A5ht_u0BlR7RnOHPe7w-3" target="5A5ht_u0BlR7RnOHPe7w-1" edge="1">
          <mxGeometry relative="1" as="geometry" />
        </mxCell>
        <mxCell id="5A5ht_u0BlR7RnOHPe7w-3" value="&lt;p style=&quot;margin:0px;margin-top:6px;text-align:center;&quot;&gt;&lt;b&gt;Client&lt;/b&gt;&lt;/p&gt;&lt;hr size=&quot;1&quot; style=&quot;border-style:solid;&quot;&gt;&lt;p style=&quot;margin:0px;margin-left:8px;&quot;&gt;+ Header dependency: boost::asio&lt;/p&gt;&lt;p style=&quot;margin:0px;margin-left:8px;&quot;&gt;+ Header dependency: cxxopts&lt;br&gt;&lt;br&gt;&lt;/p&gt;" style="align=left;overflow=fill;html=1;dropTarget=0;whiteSpace=wrap;" parent="1" vertex="1">
          <mxGeometry x="870" y="410" width="210" height="90" as="geometry" />
        </mxCell>
        <mxCell id="5A5ht_u0BlR7RnOHPe7w-4" value="" style="shape=component;jettyWidth=8;jettyHeight=4;" parent="5A5ht_u0BlR7RnOHPe7w-3" vertex="1">
          <mxGeometry x="1" width="20" height="20" relative="1" as="geometry">
            <mxPoint x="-24" y="4" as="offset" />
          </mxGeometry>
        </mxCell>
        <mxCell id="5A5ht_u0BlR7RnOHPe7w-6" value="&lt;p style=&quot;margin:0px;margin-top:6px;text-align:center;&quot;&gt;&lt;b&gt;Server&lt;/b&gt;&lt;/p&gt;&lt;hr size=&quot;1&quot; style=&quot;border-style:solid;&quot;&gt;&lt;p style=&quot;margin:0px;margin-left:8px;&quot;&gt;&lt;span style=&quot;background-color: initial;&quot;&gt;+ Lib d&lt;/span&gt;&lt;span style=&quot;background-color: initial;&quot;&gt;ependency: libmysqlcppconn&lt;/span&gt;&lt;br&gt;&lt;/p&gt;&lt;p style=&quot;margin: 0px 0px 0px 8px;&quot;&gt;&lt;span style=&quot;background-color: initial;&quot;&gt;+ Lib dependency: sqlite3&lt;/span&gt;&lt;br&gt;&lt;/p&gt;&lt;p style=&quot;margin: 0px 0px 0px 8px;&quot;&gt;+ Header d&lt;span style=&quot;background-color: initial;&quot;&gt;ependency: boost::asio&lt;/span&gt;&lt;/p&gt;&lt;p style=&quot;margin: 0px 0px 0px 8px;&quot;&gt;+ Header dependency: cxxopts&lt;span style=&quot;background-color: initial;&quot;&gt;&lt;br&gt;&lt;/span&gt;&lt;/p&gt;&lt;p style=&quot;margin:0px;margin-left:8px;&quot;&gt;&lt;br&gt;&lt;/p&gt;" style="align=left;overflow=fill;html=1;dropTarget=0;whiteSpace=wrap;" parent="1" vertex="1">
          <mxGeometry x="1136" y="400" width="210" height="120" as="geometry" />
        </mxCell>
        <mxCell id="5A5ht_u0BlR7RnOHPe7w-7" value="" style="shape=component;jettyWidth=8;jettyHeight=4;" parent="5A5ht_u0BlR7RnOHPe7w-6" vertex="1">
          <mxGeometry x="1" width="20" height="20" relative="1" as="geometry">
            <mxPoint x="-24" y="4" as="offset" />
          </mxGeometry>
        </mxCell>
        <mxCell id="5A5ht_u0BlR7RnOHPe7w-8" style="edgeStyle=orthogonalEdgeStyle;rounded=0;orthogonalLoop=1;jettySize=auto;html=1;exitX=0.5;exitY=0;exitDx=0;exitDy=0;" parent="1" edge="1">
          <mxGeometry relative="1" as="geometry">
            <mxPoint x="1252.52" y="400" as="sourcePoint" />
            <mxPoint x="1160" y="290" as="targetPoint" />
            <Array as="points">
              <mxPoint x="1252" y="345" />
              <mxPoint x="1160" y="345" />
              <mxPoint x="1160" y="290" />
            </Array>
          </mxGeometry>
        </mxCell>
        <mxCell id="5A5ht_u0BlR7RnOHPe7w-9" value="&lt;p style=&quot;margin:0px;margin-top:6px;text-align:center;&quot;&gt;&lt;b&gt;Query&lt;/b&gt;&lt;/p&gt;&lt;hr size=&quot;1&quot; style=&quot;border-style:solid;&quot;&gt;&lt;p style=&quot;margin:0px;margin-left:8px;&quot;&gt;+ Lib dependency: libmysqlcppconn&lt;br&gt;&lt;/p&gt;&lt;p style=&quot;margin:0px;margin-left:8px;&quot;&gt;+ Header dependency: cxxopts&lt;br&gt;&lt;/p&gt;" style="align=left;overflow=fill;html=1;dropTarget=0;whiteSpace=wrap;" parent="1" vertex="1">
          <mxGeometry x="1400" y="415" width="210" height="90" as="geometry" />
        </mxCell>
        <mxCell id="5A5ht_u0BlR7RnOHPe7w-10" value="" style="shape=component;jettyWidth=8;jettyHeight=4;" parent="5A5ht_u0BlR7RnOHPe7w-9" vertex="1">
          <mxGeometry x="1" width="20" height="20" relative="1" as="geometry">
            <mxPoint x="-24" y="4" as="offset" />
          </mxGeometry>
        </mxCell>
        <mxCell id="5A5ht_u0BlR7RnOHPe7w-15" value="&lt;font style=&quot;font-size: 16px;&quot;&gt;&lt;u&gt;Project dependencies&lt;/u&gt;&lt;/font&gt;" style="text;html=1;align=center;verticalAlign=middle;whiteSpace=wrap;rounded=0;" parent="1" vertex="1">
          <mxGeometry x="1118.5" y="80" width="245" height="30" as="geometry" />
        </mxCell>
        <UserObject label="my-azure-mysql.mysql.database.azure.com" link="my-azure-mysql.mysql.database.azure.com" id="hkyY0QnbpOqTXCnvB_vb-1">
          <mxCell style="text;html=1;align=center;verticalAlign=middle;whiteSpace=wrap;rounded=0;" vertex="1" parent="1">
            <mxGeometry x="-840" y="1020" width="320" height="30" as="geometry" />
          </mxCell>
        </UserObject>
      </root>
    </mxGraphModel>
  </diagram>
</mxfile>
